<svg width="200" height="12" viewBox="0 0 200 12" fill="none" xmlns="http://www.w3.org/2000/svg">
<circle cx="36" cy="6" r="6" fill="#333333"/>
<circle cx="68" cy="6" r="6" fill="#999999"/>
<circle cx="100" cy="6" r="6" fill="#999999"/>
<circle cx="132" cy="6" r="6" fill="#999999"/>
<circle cx="164" cy="6" r="6" fill="#999999"/>
<path fill-rule="evenodd" clip-rule="evenodd" d="M5.4777 0.219168C5.87773 0.564178 5.94259 1.19347 5.62256 1.62473L2.37578 6.00004L5.62256 10.3753C5.94259 10.8066 5.87773 11.4359 5.4777 11.7809C5.07766 12.1259 4.49394 12.056 4.17391 11.6247L0 6.00004L4.17391 0.375342C4.49394 -0.0559202 5.07766 -0.125842 5.4777 0.219168ZM9.65184 0.219168C10.0519 0.564178 10.1167 1.19347 9.7967 1.62473L6.54992 6.00004L9.7967 10.3753C10.1167 10.8066 10.0519 11.4359 9.65184 11.7809C9.2518 12.1259 8.66808 12.056 8.34805 11.6247L4.17414 6.00004L8.34805 0.375342C8.66808 -0.0559202 9.2518 -0.125842 9.65184 0.219168Z" fill="#999999"/>
<path fill-rule="evenodd" clip-rule="evenodd" d="M190.348 0.219168C190.748 -0.125842 191.332 -0.0559202 191.652 0.375342L195.826 6.00004L191.652 11.6247C191.332 12.056 190.748 12.1259 190.348 11.7809C189.948 11.4359 189.883 10.8066 190.203 10.3753L193.45 6.00004L190.203 1.62473C189.883 1.19347 189.948 0.564177 190.348 0.219168ZM194.522 0.219168C194.922 -0.125841 195.506 -0.0559197 195.826 0.375342L200 6.00004L195.826 11.6247C195.506 12.056 194.922 12.1259 194.522 11.7809C194.122 11.4359 194.057 10.8066 194.377 10.3753L197.624 6.00004L194.377 1.62473C194.057 1.19347 194.122 0.564178 194.522 0.219168Z" fill="#999999"/>
</svg>
