<svg xmlns="http://www.w3.org/2000/svg" width="49" height="26" fill="none" viewBox="0 0 49 26">
  <path fill="#fff" d="M49 26H0L24.5 0 49 26zM13.307 13.13l3.337 3.54 3.337-3.54-3.337-3.549-3.336 3.55zm3.337 11.875l3.337-3.539-3.337-3.55-3.336 3.55 3.336 3.54zm15.764 0l3.337-3.539-3.337-3.55-3.389 3.55 3.39 3.54zm-3.94-19.602a.374.374 0 01-.08.094 268.741 268.741 0 01-3.152 3.351c-.092.094 0 .157 0 .241l3.074 3.267.144.136 3.337-3.529-3.324-3.56zM8.787 25.005l.132-.136 3.074-3.256a.199.199 0 00.076-.152.199.199 0 00-.076-.152c-.933-.963-1.84-1.948-2.759-2.922l-.447-.47-3.336 3.549 3.336 3.54zm8.447-16.052l3.337 3.54.105-.095 3.14-3.33c.105-.115 0-.178 0-.262L20.743 5.56l-.131-.136-3.377 3.529zm0 8.377l3.337 3.54.17-.168c1-1.048 2.01-2.095 3.022-3.215a.23.23 0 00.067-.074.184.184 0 00.023-.088c0-.03-.008-.061-.023-.09a.23.23 0 00-.067-.073c-.945-.994-1.891-1.99-2.824-2.994l-.368-.377-3.337 3.539zm15.764 0l3.337 3.54 3.337-3.54-3.337-3.54L33 17.33zm-4.532-3.55v.073l-3.166 3.362c-.105.094-.065.157 0 .24l2.943 3.142c.079.094.17.188.276.293l3.337-3.54-3.39-3.57zM12.73 20.848a.293.293 0 01.065-.084l3.166-3.36c.092-.106 0-.158 0-.242l-3.113-3.267a.713.713 0 00-.145-.125L9.38 17.298l3.35 3.55zm19.626-4.188l3.337-3.54-3.337-3.528-3.337 3.539 3.337 3.529zm-7.882-8.377l3.337-3.54-3.285-3.466h-.065l-3.206 3.435a.135.135 0 00-.03.084c0 .03.01.058.03.084l3.219 3.403zm0 8.377l3.337-3.54L24.5 9.581l-3.337 3.55 3.31 3.529zm0 8.377l3.337-3.54-3.337-3.55-3.31 3.519 3.31 3.57zm15.764 0l3.337-3.54-3.324-3.518h-.066l-3.218 3.382c-.105.115 0 .168 0 .241l2.627 2.838.644.597zm-38.346.199h5.99l-2.969-3.142-3.021 3.142zm39.278 0h5.938l-2.969-3.142-2.969 3.142zm-17.616 0l-2.982-3.142-2.982 3.142h5.964zm9.76 0h5.938l-2.968-3.142-2.97 3.142zm-1.917 0l-2.97-3.142-2.968 3.142h5.938zm-15.764 0l-2.97-3.142-2.968 3.142h5.938z"/>
</svg>
